<?xml version="1.0" encoding="UTF-8"?>
<svg id="Layer_1" data-name="Layer 1" xmlns="http://www.w3.org/2000/svg" viewBox="0 0 1000 200">
  <defs>
    <style>
      .cls-1 {
        fill: #ff8a00;
      }

      .cls-2 {
        fill: #f2f2f2;
      }
    </style>
  </defs>
  <rect class="cls-2" x="408.8" y="35.67" width="22.7" height="104.44"/>
  <path class="cls-2" d="M489.02,114.38h-1.51l-20.43-51.46h-21.19v10.6l28.76,64.33v1.51c-1.51,4.54-4.04,6.81-7.57,6.81h-13.62v19.68h18.92c7.27,0,13.17-1.89,17.71-5.68,4.54-3.79,8.22-9.46,11.05-17.03l26.49-69.63v-10.6h-21.19l-17.41,51.46Z"/>
  <polygon class="cls-2" points="621.47 116.65 619.96 116.65 588.17 34.15 565.47 34.15 565.47 46.26 604.82 140.11 636.61 140.11 675.97 46.26 675.97 34.15 653.26 34.15 621.47 116.65"/>
  <path class="cls-2" d="M735.75,62.92h-49.19v17.41h39.35c3.03,0,5.17.63,6.43,1.89,1.26,1.26,1.89,3.41,1.89,6.43v4.54h-33.3c-6.06,0-11.1,2.02-15.14,6.05-4.04,4.04-6.05,9.08-6.05,15.14v6.06c0,6.05,2.02,11.1,6.05,15.14,4.03,4.04,9.08,6.06,15.14,6.06h17.41c5.45,0,9.94-1.76,13.47-5.3,1.41-1.31,2.73-3.08,3.93-5.3h.76l3.78,9.08h16.65v-56.01c0-6.05-2.02-11.1-6.06-15.14-4.04-4.03-9.08-6.05-15.14-6.05ZM734.24,112.11c0,8.07-4.04,12.11-12.11,12.11h-12.11c-5.05,0-7.57-2.52-7.57-7.57v-.76c0-5.05,2.52-7.57,7.57-7.57h24.22v3.79Z"/>
  <path class="cls-2" d="M832.63,109.84c0,8.07-4.04,12.11-12.11,12.11h-12.87c-3.03,0-5.17-.63-6.43-1.89-1.26-1.26-1.89-3.41-1.89-6.43v-50.71h-22.7v57.52c0,6.05,2.02,11.1,6.05,15.14,4.03,4.04,9.08,6.06,15.14,6.06h18.92c5.45,0,9.94-1.76,13.47-5.3,1.41-1.31,2.73-3.08,3.94-5.3h.76l3.78,9.08h16.65V62.92h-22.71v46.92Z"/>
  <rect class="cls-2" x="875.77" y="35.67" width="22.7" height="104.44"/>
  <path class="cls-2" d="M950.32,118.54c-1.26-1.26-1.89-3.41-1.89-6.43v-31.03h17.41l6.81-6.81v-11.35h-24.22v-21.19h-13.62l-7.57,21.19h-14.38v18.16h12.87v37.84c0,6.05,2.02,11.1,6.05,15.14,4.03,4.04,9.08,6.06,15.14,6.06h28v-19.68h-18.16c-3.03,0-5.17-.63-6.43-1.89Z"/>
  <path class="cls-1" d="M118.18,89.1c-2.72-1.71-5.5-2.87-8.32-3.48v-1.51c2.62-.6,4.89-1.71,6.81-3.33,4.54-3.73,6.81-9.18,6.81-16.35v-5.3c0-7.57-2.27-13.62-6.81-18.16-4.54-4.54-10.6-6.81-18.16-6.81H25.08v105.96h76.44c7.57,0,13.62-2.27,18.16-6.81,4.54-4.54,6.81-10.6,6.81-18.16v-8.32c0-7.87-2.78-13.77-8.33-17.71ZM49.3,53.83h40.11c6.56,0,9.84,3.28,9.84,9.84v3.03c0,6.56-3.28,9.84-9.84,9.84h-40.11v-22.7ZM102.28,110.6c0,6.56-3.28,9.84-9.84,9.84h-43.14v-24.98h43.14c6.56,0,9.84,3.28,9.84,9.84v5.3Z"/>
  <path class="cls-1" d="M196.89,62.92h-49.19v17.41h39.35c3.03,0,5.17.63,6.43,1.89,1.26,1.26,1.89,3.41,1.89,6.43v4.54h-33.3c-6.06,0-11.1,2.02-15.14,6.05-4.04,4.04-6.05,9.08-6.05,15.14v6.06c0,6.05,2.02,11.1,6.05,15.14,4.03,4.04,9.08,6.06,15.14,6.06h17.41c5.45,0,9.94-1.76,13.47-5.3,1.41-1.31,2.73-3.08,3.94-5.3h.76l3.78,9.08h16.65v-56.01c0-6.05-2.02-11.1-6.06-15.14-4.04-4.03-9.08-6.05-15.14-6.05ZM195.37,112.11c0,8.07-4.04,12.11-12.11,12.11h-12.11c-5.05,0-7.57-2.52-7.57-7.57v-.76c0-5.05,2.52-7.57,7.57-7.57h24.22v3.79Z"/>
  <path class="cls-1" d="M262.88,66.7c-1.51,1.51-2.82,3.28-3.94,5.3h-.76l-3.79-9.08h-16.65v77.2h22.7v-45.41c0-8.07,4.03-12.11,12.11-12.11h22.7v-21.19h-18.92c-5.05,0-9.54,1.77-13.47,5.3Z"/>
  <path class="cls-1" d="M312.68,68.97c-4.04,4.04-6.05,9.08-6.05,15.14v34.82c0,6.05,2.02,11.1,6.05,15.14,4.03,4.04,9.08,6.06,15.14,6.06h19.68c5.15,0,9.64-1.51,13.47-4.54,1.41-1.21,2.72-2.72,3.93-4.54h.76v34.81h22.71V62.92h-60.55c-6.05,0-11.1,2.02-15.14,6.05ZM329.33,90.92c0-3.03.63-5.17,1.89-6.43,1.26-1.26,3.41-1.89,6.43-1.89h28v25.73c0,8.07-4.04,12.11-12.11,12.11h-15.89c-3.03,0-5.17-.63-6.43-1.89-1.26-1.26-1.89-3.41-1.89-6.43v-21.19Z"/>
</svg>