<?xml version="1.0" encoding="UTF-8"?>
<svg id="Layer_1" data-name="Layer 1" xmlns="http://www.w3.org/2000/svg" viewBox="0 0 600 600">
  <defs>
    <style>
      .cls-1 {
        fill: #ff8a00;
      }

      .cls-2 {
        fill: #565555;
      }
    </style>
  </defs>
  <path class="cls-2" d="M191.11,341h-42.7c1.02,2.23,2.09,4.51,3.21,6.84h41.9c-.87-2.26-1.67-4.54-2.41-6.84Z"/>
  <path class="cls-2" d="M204.93,133.52c4.25,0,7.72-3.46,7.72-7.72s-3.46-7.71-7.72-7.71c-3.02,0-5.61,1.76-6.88,4.3h-29.25l-15.59,4.7c-1.91.57-3.74,1.29-5.48,2.14h50.32c1.27,2.53,3.86,4.3,6.88,4.3Z"/>
  <path class="cls-2" d="M174.41,313.31h-37.09c.75,2.29,1.54,4.57,2.37,6.84h34.72v-6.84Z"/>
  <path class="cls-2" d="M191.51,156.28c-.76-1.19-1.21-2.59-1.21-4.11,0-.96.2-1.88.52-2.73h-45.51l-17.8,17.8v9.67l20.64-20.64h43.37Z"/>
  <path class="cls-2" d="M144.48,267.09c-.52-1.03-.84-2.18-.84-3.42s.32-2.38.84-3.42h-16.76c.1,2.29.25,4.56.43,6.84h16.33Z"/>
  <path class="cls-2" d="M129.55,225.13h35.31l50.93-48.21c.45-3.92,1.14-7.77,2.11-11.51l-55.87,52.89h-32.48c-.49-.99-1.19-1.85-2.04-2.55v11.93c.84-.69,1.54-1.56,2.04-2.55Z"/>
  <path class="cls-2" d="M235.09,108.82c2.02,0,3.84.81,5.19,2.1l4.83-11.51-8.14,2.45-2.96,7.07c.36-.05.71-.11,1.09-.11Z"/>
  <path class="cls-2" d="M208.84,379.35h-32.59v.07h-7.45c1.38,2.26,2.81,4.54,4.28,6.84h40.02c-1.5-2.33-2.92-4.63-4.26-6.91Z"/>
  <path class="cls-2" d="M247.23,426.33l-22.37,22.37c1.66,1.54,3.36,3.07,5.07,4.59l22.51-22.51c-1.79-1.46-3.52-2.95-5.22-4.45Z"/>
  <path class="cls-2" d="M209.82,418.77l15.5-15.5c-1.45-1.82-2.86-3.64-4.21-5.46l-16.12,16.12c-.78-.26-1.6-.43-2.45-.43h0c-2.06,0-4,.8-5.45,2.26-.55.55-.96,1.17-1.31,1.82,2.98,3.65,6.08,7.28,9.31,10.89,1.08-.38,2.08-.97,2.91-1.8,2.14-2.14,2.72-5.22,1.83-7.9Z"/>
  <path class="cls-2" d="M281.94,450.13l-22.42,22.42h-5.45c2.92,2.09,5.92,4.13,8.97,6.14l25.38-25.38c-2.21-1.02-4.37-2.08-6.49-3.17Z"/>
  <path class="cls-2" d="M151.31,271.34c4.23,0,7.66-3.43,7.66-7.66s-3.43-7.66-7.66-7.66c-3,0-5.56,1.74-6.82,4.24h6.82v6.84h-6.82c1.26,2.51,3.83,4.24,6.82,4.24Z"/>
  <path class="cls-2" d="M151.31,260.26h-6.82c-.52,1.03-.84,2.18-.84,3.42s.32,2.38.84,3.42h6.82v-6.84Z"/>
  <path class="cls-2" d="M196.75,156.28h-5.24c1.36,2.13,3.73,3.55,6.45,3.55,4.23,0,7.66-3.43,7.66-7.66s-3.43-7.66-7.66-7.66c-3.27,0-6.04,2.05-7.14,4.93h5.93v6.84Z"/>
  <path class="cls-2" d="M191.51,156.28h5.24v-6.84h-5.93c-.33.85-.52,1.76-.52,2.73,0,1.52.45,2.92,1.21,4.11Z"/>
  <path class="cls-2" d="M239.96,112.99h-7.66l1.7-4.07c-3.62.53-6.42,3.62-6.42,7.39,0,4.14,3.36,7.5,7.5,7.5s7.5-3.36,7.5-7.5c0-2.13-.89-4.03-2.31-5.4l-.81,1.93c.16.04.32.09.48.14Z"/>
  <path class="cls-2" d="M234.01,108.92l-1.7,4.07h7.66c-.16-.05-.32-.1-.48-.14l.81-1.93c-1.35-1.3-3.17-2.1-5.19-2.1-.37,0-.73.06-1.09.11Z"/>
  <path class="cls-2" d="M300,87.08c1.27,0,2.45.35,3.5.9v-4.05l-3.5-1.05-3.5,1.05v4.06c1.05-.56,2.23-.9,3.5-.9Z"/>
  <path class="cls-2" d="M296.5,94.07v-6.09c-2.37,1.26-4.01,3.73-4.01,6.6,0,4.14,3.36,7.5,7.5,7.5s7.5-3.36,7.5-7.5c0-2.87-1.63-5.34-4.01-6.6v6.09h-6.99Z"/>
  <path class="cls-2" d="M296.5,87.99v6.09h6.99v-6.09c-1.05-.56-2.23-.9-3.5-.9s-2.45.35-3.5.9Z"/>
  <path class="cls-2" d="M400.92,347.84h47.47c1.12-2.33,2.19-4.61,3.21-6.84h-48.27c-.74,2.3-1.54,4.58-2.41,6.84Z"/>
  <path class="cls-2" d="M389.79,118.09c-4.25,0-7.72,3.46-7.72,7.71s3.46,7.72,7.72,7.72c3.02,0,5.61-1.76,6.88-4.3h55.59c-1.74-.85-3.57-1.57-5.48-2.14l-15.59-4.69h-34.52c-1.27-2.54-3.86-4.3-6.88-4.3Z"/>
  <path class="cls-2" d="M426.41,316.73c0,1.23-.32,2.38-.84,3.42h34.74c.83-2.26,1.62-4.54,2.37-6.84h-37.11c.52,1.03.84,2.18.84,3.42Z"/>
  <path class="cls-2" d="M403.95,149.45c.33.85.52,1.76.52,2.73,0,1.52-.45,2.92-1.21,4.11h43.37l25.86,25.86v-9.67l-23.03-23.03h-45.51Z"/>
  <path class="cls-2" d="M448.06,263.52c0,1.05-.21,2.04-.59,2.95h24.43c.17-2.27.31-4.55.4-6.84h-25.33c.68,1.14,1.09,2.46,1.09,3.88Z"/>
  <path class="cls-2" d="M465.23,218.29h-32.48l-55.92-51.67c.88,3.66,1.54,7.41,1.93,11.24l51.16,47.27h35.31c1.27,2.53,3.86,4.3,6.88,4.3.13,0,.25-.03.38-.04v-15.35c-.13,0-.25-.04-.38-.04-3.02,0-5.61,1.76-6.88,4.3Z"/>
  <path class="cls-2" d="M363.13,108.82c.37,0,.73.06,1.09.11l-3.22-7.68-8.14-2.45,5.08,12.12c1.35-1.3,3.17-2.1,5.19-2.1Z"/>
  <path class="cls-2" d="M418.52,379.35h-32.93c-1.34,2.28-2.76,4.58-4.26,6.91h45.58c1.47-2.29,2.9-4.57,4.28-6.84h-12.68v-.07Z"/>
  <path class="cls-2" d="M347.39,426.17c-1.7,1.5-3.43,2.99-5.21,4.45l25.11,25.11c2.25-1.95,4.46-3.92,6.62-5.9h-2.85l-23.67-23.67Z"/>
  <path class="cls-2" d="M383.59,418.77c-.9,2.69-.31,5.77,1.83,7.9,1.46,1.46,3.39,2.26,5.45,2.26s4-.8,5.46-2.26c3.01-3.01,3.01-7.9,0-10.91-1.46-1.46-3.39-2.26-5.45-2.26h0c-.85,0-1.67.17-2.45.43l-15.53-15.53c-1.36,1.81-2.78,3.62-4.24,5.43l14.93,14.93Z"/>
  <path class="cls-2" d="M312.73,450.02c-2.12,1.1-4.28,2.15-6.49,3.18l26.18,26.18h3.47c3.42-2.23,6.77-4.51,10.03-6.84h-10.67l-22.53-22.53Z"/>
  <path class="cls-2" d="M296.58,486.63c-1.24,0-2.38-.32-3.42-.84v10.14c2.26,1.11,4.52,2.22,6.84,3.29,0,0,0,0,0,0v-13.43c-1.03.52-2.18.84-3.42.84Z"/>
  <path class="cls-2" d="M300,478.1v7.7c2.51-1.26,4.24-3.83,4.24-6.82,0-4.23-3.43-7.66-7.66-7.66s-7.66,3.43-7.66,7.66c0,3,1.74,5.56,4.24,6.82v-7.7h6.84Z"/>
  <path class="cls-2" d="M300,485.8v-7.7h-6.84v7.7c1.03.52,2.18.84,3.42.84s2.38-.32,3.42-.84Z"/>
  <path class="cls-2" d="M420.36,313.31h5.21c-1.26-2.51-3.83-4.24-6.82-4.24-4.23,0-7.66,3.43-7.66,7.66s3.43,7.66,7.66,7.66c3,0,5.56-1.74,6.82-4.24h-5.21v-6.84Z"/>
  <path class="cls-2" d="M425.57,313.31h-5.21v6.84h5.21c.52-1.03.84-2.18.84-3.42s-.32-2.38-.84-3.42Z"/>
  <path class="cls-2" d="M440.4,259.64h6.57c-1.33-2.25-3.76-3.78-6.57-3.78-4.23,0-7.66,3.43-7.66,7.66s3.43,7.66,7.66,7.66c3.18,0,5.91-1.94,7.07-4.71h-7.07v-6.84Z"/>
  <path class="cls-2" d="M446.97,259.64h-6.57v6.84h7.07c.38-.91.59-1.91.59-2.95,0-1.42-.41-2.74-1.09-3.88Z"/>
  <path class="cls-2" d="M398.02,149.45h5.93c-1.1-2.88-3.87-4.93-7.14-4.93-4.23,0-7.66,3.43-7.66,7.66s3.43,7.66,7.66,7.66c2.72,0,5.09-1.42,6.45-3.55h-5.24v-6.84Z"/>
  <path class="cls-2" d="M403.95,149.45h-5.93v6.84h5.24c.76-1.19,1.21-2.59,1.21-4.11,0-.96-.2-1.88-.52-2.73Z"/>
  <path class="cls-2" d="M358.27,112.99c.16-.05.32-.1.48-.14l-.81-1.93c-1.42,1.37-2.31,3.27-2.31,5.4,0,4.14,3.36,7.5,7.5,7.5s7.5-3.36,7.5-7.5c0-3.77-2.79-6.86-6.42-7.39l1.7,4.07h-7.66Z"/>
  <path class="cls-2" d="M357.94,110.92l.81,1.93c-.16.04-.32.09-.48.14h7.66l-1.7-4.07c-.36-.05-.71-.11-1.09-.11-2.02,0-3.84.81-5.19,2.1Z"/>
  <g>
    <path class="cls-1" d="M379.21,219.58c-.17-.05-.33-.12-.49-.17l-5.58-1.71v-31.11c0-5.24-.52-10.35-1.49-15.3-.46-2.32-1.02-4.6-1.68-6.84-9.35-32.02-38.42-55.43-72.76-55.43-32.41,0-60.13,20.86-71,50.13-1.31,3.52-2.37,7.15-3.17,10.89-1.14,5.34-1.76,10.87-1.76,16.55v31.11l-5.58,1.71c-.17.05-.33.12-.49.17-14.57,4.7-24.34,18.16-24.34,33.7v47.46c0,13.92,2.21,27.43,6.59,40.26.62,1.81,1.28,3.61,1.98,5.4.18.47.39.96.58,1.44,3.58,8.87,8.74,19.86,15.9,31.52,1.4,2.28,2.88,4.59,4.44,6.91,1.61,2.39,3.3,4.8,5.08,7.21,1.35,1.83,2.74,3.65,4.19,5.48,6.45,8.11,13.93,16.15,22.57,23.68,1.48,1.29,3,2.57,4.55,3.83,8.74,7.08,18.61,13.6,29.69,19.16,1.82.91,3.66,1.8,5.54,2.65.5.23.99.47,1.5.7l3.72,1.65,3.72-1.65c.62-.28,1.22-.57,1.84-.85,1.84-.84,3.65-1.71,5.43-2.61,11.07-5.57,20.93-12.1,29.65-19.19,1.49-1.21,2.94-2.44,4.36-3.68,8.44-7.35,15.77-15.19,22.11-23.11,1.46-1.82,2.86-3.64,4.21-5.46,1.94-2.61,3.78-5.21,5.51-7.8,1.56-2.32,3.04-4.63,4.44-6.91,7.16-11.66,12.32-22.64,15.9-31.52.19-.48.39-.97.58-1.44.7-1.79,1.36-3.59,1.98-5.4,4.37-12.83,6.59-26.34,6.59-40.26v-47.46c0-15.53-9.76-29-24.34-33.7ZM240.61,205.44v-18.84c0-31.89,25.39-57.83,56.61-57.83s56.6,25.94,56.6,57.83v25.19l-6.07-1.86-50.53-15.47-50.53,15.47-6.07,1.86v-6.35ZM377.9,339.66c-9.6,24.32-32.72,67.9-80.68,90.81-47.97-22.91-71.08-66.48-80.68-90.81-1.92-4.86-3.45-9.86-4.61-14.96-.19-.83-.36-1.67-.53-2.51-1.41-6.98-2.15-14.14-2.15-21.45v-47.46c0-7.47,4.87-14.17,11.84-16.31l18.64-5.71,6.95-2.13,50.53-15.47,50.53,15.47,10.58,3.24,15,4.59c6.98,2.14,11.85,8.84,11.85,16.31v47.46c0,6.96-.66,13.79-1.94,20.46-.12.63-.27,1.26-.4,1.89-1.2,5.66-2.83,11.2-4.95,16.57Z"/>
    <path class="cls-1" d="M333.35,305.31h-32.37l9.46-56.8c.38-2.27-2.56-3.45-3.8-1.53l-54.41,84.71c-.98,1.53.09,3.57,1.89,3.57h35.86l-9.02,57.21c-.36,2.31,2.65,3.44,3.84,1.44l50.47-85.11c.91-1.54-.17-3.5-1.93-3.5Z"/>
  </g>
  <polygon class="cls-1" points="275.89 379.91 275.9 379.9 275.91 379.91 275.91 379.89 275.89 379.89 275.89 379.91"/>
  <path class="cls-1" d="M454.34,101.98l-154.34-46.48-154.35,46.48c-26.53,7.99-44.36,31.98-44.36,59.69v89.18c0,29.35,5.41,57.73,16.09,84.34,20.54,51.19,70.9,144,177.38,190.41l5.24,2.28,5.24-2.28c106.48-46.41,156.84-139.22,177.38-190.41,10.68-26.61,16.09-54.98,16.09-84.34v-89.18c0-27.71-17.83-51.7-44.36-59.69ZM458.29,325.43c-1.93,4.82-4.17,10.05-6.69,15.57-1.02,2.23-2.09,4.51-3.21,6.84-4.75,9.86-10.44,20.53-17.19,31.59-1.38,2.26-2.81,4.54-4.28,6.84-13.54,21.11-30.93,43.25-53.01,63.57-2.16,1.99-4.37,3.95-6.62,5.9-6.71,5.81-13.82,11.43-21.36,16.81-3.26,2.33-6.61,4.61-10.03,6.84-11.1,7.23-23.03,13.92-35.9,19.85,0,0,0,0,0,0-2.32-1.07-4.58-2.17-6.84-3.29-10.69-5.27-20.71-11.06-30.12-17.25-3.05-2.01-6.05-4.05-8.97-6.14-8.59-6.13-16.63-12.58-24.14-19.26-1.71-1.52-3.42-3.05-5.07-4.59-7.08-6.59-13.65-13.36-19.78-20.22-3.23-3.61-6.33-7.24-9.31-10.89-8.55-10.47-16.08-21.02-22.69-31.32-1.47-2.29-2.9-4.57-4.28-6.84-6.75-11.06-12.43-21.72-17.19-31.59-1.12-2.33-2.19-4.61-3.21-6.84-2.52-5.52-4.76-10.75-6.69-15.57-.7-1.75-1.37-3.51-2.02-5.28-.83-2.26-1.62-4.54-2.37-6.84-4.86-14.89-7.93-30.35-9.17-46.22-.18-2.27-.33-4.55-.43-6.84-.14-3.12-.21-6.25-.21-9.4v-89.18c0-14.07,7.93-26.48,20.23-32.45,1.74-.85,3.57-1.57,5.48-2.14l15.59-4.7,68.16-20.52,8.14-2.45,51.39-15.48,3.5-1.05,3.5,1.05,49.36,14.86,8.14,2.45,70.19,21.13,15.59,4.69c1.91.57,3.74,1.29,5.48,2.14,12.3,5.98,20.23,18.39,20.23,32.45v89.18c0,2.94-.07,5.87-.19,8.79-.1,2.29-.23,4.56-.4,6.84-1.21,16.08-4.29,31.75-9.22,46.83-.75,2.29-1.54,4.57-2.37,6.84-.65,1.77-1.32,3.53-2.02,5.28Z"/>
</svg>