<?xml version="1.0" encoding="UTF-8"?>
<svg id="Layer_1" data-name="Layer 1" xmlns="http://www.w3.org/2000/svg" viewBox="0 0 1000 250">
  <defs>
    <style>
      .cls-1 {
        fill: #ff8a00;
      }

      .cls-2 {
        fill: #565555;
      }
    </style>
  </defs>
  <rect class="cls-2" x="685.17" y="35.06" width="31.74" height="146.02"/>
  <path class="cls-2" d="M821.67,73.15l-24.34,71.95h-2.12l-28.57-71.95h-29.63v14.81l40.21,89.94v2.12c-2.12,6.35-5.65,9.52-10.58,9.52h-19.05v27.51h26.45c10.16,0,18.41-2.65,24.76-7.94,6.35-5.29,11.5-13.23,15.45-23.81l37.04-97.35v-14.81h-29.63Z"/>
  <path class="cls-1" d="M278.85,109.76c-3.81-2.4-7.69-4.02-11.64-4.87v-2.12c3.67-.85,6.84-2.4,9.52-4.66,6.35-5.22,9.52-12.84,9.52-22.85v-7.41c0-10.58-3.17-19.05-9.52-25.4-6.35-6.35-14.81-9.52-25.39-9.52h-102.64v148.14h106.87c10.58,0,19.05-3.17,25.39-9.52,6.35-6.35,9.52-14.81,9.52-25.4v-11.64c0-11.01-3.88-19.26-11.64-24.76ZM182.56,60.46h56.08c9.17,0,13.75,4.59,13.75,13.75v4.23c0,9.17-4.59,13.76-13.75,13.76h-56.08v-31.74ZM256.63,139.81c0,9.17-4.59,13.76-13.76,13.76h-60.31v-34.92h60.31c9.17,0,13.76,4.59,13.76,13.76v7.41Z"/>
  <path class="cls-1" d="M388.9,73.15h-68.78v24.34h55.02c4.23,0,7.23.88,8.99,2.65,1.76,1.77,2.64,4.76,2.64,8.99v6.35h-46.56c-8.47,0-15.52,2.82-21.16,8.46-5.64,5.65-8.46,12.7-8.46,21.16v8.47c0,8.46,2.82,15.52,8.46,21.16,5.64,5.65,12.7,8.47,21.16,8.47h24.34c7.62,0,13.9-2.47,18.83-7.41,1.97-1.83,3.81-4.3,5.5-7.41h1.06l5.29,12.7h23.28v-78.3c0-8.46-2.83-15.52-8.47-21.16-5.64-5.64-12.7-8.46-21.16-8.46ZM386.78,141.93c0,11.29-5.64,16.93-16.93,16.93h-16.93c-7.06,0-10.58-3.52-10.58-10.58v-1.06c0-7.05,3.52-10.58,10.58-10.58h33.86v5.29Z"/>
  <path class="cls-1" d="M481.16,78.44c-2.11,2.12-3.95,4.59-5.5,7.41h-1.06l-5.29-12.7h-23.28v107.93h31.74v-63.49c0-11.29,5.64-16.93,16.93-16.93h31.74v-29.63h-26.45c-7.06,0-13.33,2.47-18.84,7.41Z"/>
  <path class="cls-1" d="M571.95,73.15c-8.46,0-15.52,2.82-21.16,8.46-5.64,5.65-8.46,12.7-8.46,21.16v48.68c0,8.46,2.82,15.52,8.46,21.16,5.64,5.65,12.7,8.47,21.16,8.47h27.51c7.2,0,13.47-2.12,18.83-6.35,1.97-1.69,3.81-3.81,5.5-6.35h1.06v48.67h31.75V73.15h-84.65ZM624.86,136.64c0,11.29-5.64,16.93-16.93,16.93h-22.22c-4.23,0-7.23-.88-8.99-2.65-1.77-1.76-2.64-4.76-2.64-8.99v-29.63c0-4.23.88-7.23,2.64-8.99,1.76-1.76,4.76-2.65,8.99-2.65h39.15v35.98Z"/>
</svg>