<?xml version="1.0" encoding="UTF-8"?>
<svg id="Layer_1" data-name="Layer 1" xmlns="http://www.w3.org/2000/svg" viewBox="0 0 1000 600">
  <defs>
    <style>
      .cls-1 {
        fill: #ff8a00;
      }

      .cls-2 {
        fill: #565555;
      }
    </style>
  </defs>
  <path class="cls-2" d="M409.15,244.96h-34.77c.83,1.82,1.7,3.67,2.61,5.57h34.11c-.71-1.84-1.36-3.69-1.96-5.57Z"/>
  <path class="cls-2" d="M420.41,76.05c3.46,0,6.28-2.82,6.28-6.28s-2.82-6.28-6.28-6.28c-2.46,0-4.57,1.43-5.6,3.5h-23.81l-12.7,3.82c-1.55.47-3.04,1.05-4.46,1.74h40.97c1.03,2.06,3.14,3.5,5.6,3.5Z"/>
  <path class="cls-2" d="M395.56,222.42h-30.2c.61,1.87,1.25,3.72,1.93,5.56h28.27v-5.56Z"/>
  <path class="cls-2" d="M409.48,94.59c-.62-.97-.99-2.11-.99-3.34,0-.79.16-1.53.43-2.22h-37.05l-14.49,14.49v7.87l16.8-16.8h35.31Z"/>
  <path class="cls-2" d="M371.2,184.79c-.42-.84-.68-1.78-.68-2.78s.26-1.94.68-2.78h-13.65c.08,1.86.21,3.72.35,5.56h13.3Z"/>
  <path class="cls-2" d="M359.03,150.63h28.75l41.46-39.25c.36-3.19.93-6.32,1.71-9.37l-45.48,43.06h-26.44c-.4-.8-.97-1.51-1.66-2.07v9.71c.69-.57,1.26-1.27,1.66-2.07Z"/>
  <path class="cls-2" d="M444.96,55.94c1.64,0,3.13.66,4.23,1.71l3.93-9.37-6.63,2-2.41,5.75c.29-.04.58-.09.88-.09Z"/>
  <path class="cls-2" d="M423.59,276.19h-26.53v.06h-6.07c1.12,1.84,2.29,3.7,3.49,5.57h32.58c-1.22-1.89-2.38-3.77-3.47-5.62Z"/>
  <path class="cls-2" d="M454.84,314.42l-18.21,18.21c1.35,1.26,2.74,2.5,4.13,3.74l18.33-18.33c-1.46-1.19-2.86-2.4-4.25-3.62Z"/>
  <path class="cls-2" d="M424.39,308.27l12.62-12.62c-1.18-1.48-2.33-2.96-3.43-4.44l-13.12,13.12c-.64-.21-1.3-.35-1.99-.35h0c-1.68,0-3.25.65-4.44,1.84-.45.45-.78.95-1.07,1.48,2.42,2.97,4.95,5.92,7.58,8.86.88-.31,1.69-.79,2.37-1.47,1.74-1.74,2.22-4.25,1.49-6.43Z"/>
  <path class="cls-2" d="M483.1,333.8l-18.25,18.25h-4.43c2.38,1.7,4.82,3.36,7.3,5l20.66-20.66c-1.8-.83-3.56-1.69-5.29-2.58Z"/>
  <path class="cls-2" d="M376.75,188.25c3.44,0,6.24-2.79,6.24-6.24s-2.79-6.24-6.24-6.24c-2.44,0-4.53,1.41-5.56,3.46h5.56v5.56h-5.56c1.03,2.04,3.12,3.46,5.56,3.46Z"/>
  <path class="cls-2" d="M376.75,179.23h-5.56c-.42.84-.68,1.78-.68,2.78s.26,1.94.68,2.78h5.56v-5.56Z"/>
  <path class="cls-2" d="M413.75,94.59h-4.26c1.11,1.74,3.04,2.89,5.25,2.89,3.45,0,6.24-2.79,6.24-6.24s-2.79-6.24-6.24-6.24c-2.66,0-4.91,1.67-5.81,4.02h4.83v5.57Z"/>
  <path class="cls-2" d="M409.48,94.59h4.26v-5.57h-4.83c-.26.69-.43,1.44-.43,2.22,0,1.23.37,2.38.99,3.34Z"/>
  <path class="cls-2" d="M448.92,59.34h-6.23l1.39-3.31c-2.95.43-5.22,2.95-5.22,6.02,0,3.37,2.73,6.11,6.11,6.11s6.11-2.73,6.11-6.11c0-1.73-.73-3.28-1.88-4.4l-.66,1.57c.13.03.26.08.39.11Z"/>
  <path class="cls-2" d="M444.08,56.03l-1.39,3.31h6.23c-.13-.04-.26-.08-.39-.11l.66-1.57c-1.1-1.06-2.58-1.71-4.23-1.71-.3,0-.59.05-.88.09Z"/>
  <path class="cls-2" d="M497.8,38.25c1.03,0,1.99.28,2.85.73v-3.3l-2.85-.86-2.85.86v3.3c.85-.45,1.81-.73,2.85-.73Z"/>
  <path class="cls-2" d="M494.95,43.94v-4.95c-1.93,1.03-3.26,3.03-3.26,5.37,0,3.37,2.73,6.11,6.11,6.11s6.11-2.73,6.11-6.11c0-2.34-1.33-4.35-3.26-5.37v4.95h-5.69Z"/>
  <path class="cls-2" d="M494.95,38.98v4.95h5.69v-4.95c-.85-.45-1.81-.73-2.85-.73s-1.99.28-2.85.73Z"/>
  <path class="cls-2" d="M579.96,250.53h38.64c.91-1.89,1.79-3.75,2.61-5.57h-39.3c-.6,1.87-1.25,3.73-1.96,5.57Z"/>
  <path class="cls-2" d="M570.9,63.49c-3.46,0-6.28,2.82-6.28,6.28s2.82,6.28,6.28,6.28c2.46,0,4.57-1.43,5.6-3.5h45.26c-1.42-.69-2.91-1.28-4.46-1.74l-12.69-3.82h-28.1c-1.03-2.06-3.14-3.5-5.6-3.5Z"/>
  <path class="cls-2" d="M600.71,225.2c0,1.01-.26,1.94-.68,2.78h28.28c.68-1.84,1.32-3.7,1.93-5.56h-30.21c.42.84.68,1.78.68,2.78Z"/>
  <path class="cls-2" d="M582.43,89.02c.26.69.43,1.44.43,2.22,0,1.23-.37,2.38-.99,3.34h35.31l21.05,21.05v-7.87l-18.75-18.75h-37.05Z"/>
  <path class="cls-2" d="M618.34,181.89c0,.85-.17,1.66-.48,2.41h19.89c.14-1.85.25-3.7.33-5.56h-20.62c.55.93.89,2,.89,3.16Z"/>
  <path class="cls-2" d="M632.31,145.07h-26.44l-45.52-42.06c.72,2.98,1.25,6.03,1.57,9.15l41.65,38.48h28.75c1.03,2.06,3.14,3.5,5.6,3.5.11,0,.21-.03.31-.03v-12.5c-.11,0-.2-.03-.31-.03-2.46,0-4.57,1.43-5.6,3.5Z"/>
  <path class="cls-2" d="M549.2,55.94c.3,0,.59.05.88.09l-2.62-6.25-6.63-2,4.14,9.87c1.1-1.06,2.58-1.71,4.23-1.71Z"/>
  <path class="cls-2" d="M594.29,276.19h-26.81c-1.09,1.85-2.25,3.73-3.47,5.62h37.11c1.2-1.87,2.36-3.72,3.49-5.57h-10.32v-.06Z"/>
  <path class="cls-2" d="M536.38,314.29c-1.38,1.22-2.79,2.44-4.24,3.63l20.44,20.44c1.83-1.59,3.63-3.19,5.39-4.8h-2.32l-19.27-19.27Z"/>
  <path class="cls-2" d="M565.85,308.27c-.73,2.19-.25,4.7,1.49,6.43,1.19,1.19,2.76,1.84,4.44,1.84s3.26-.65,4.44-1.84c2.45-2.45,2.45-6.43,0-8.88-1.19-1.19-2.76-1.84-4.44-1.84h0c-.69,0-1.36.14-1.99.35l-12.64-12.64c-1.11,1.47-2.26,2.95-3.45,4.42l12.16,12.16Z"/>
  <path class="cls-2" d="M508.16,333.71c-1.72.89-3.49,1.75-5.28,2.59l21.32,21.32h2.83c2.79-1.81,5.51-3.67,8.17-5.56h-8.69l-18.34-18.34Z"/>
  <path class="cls-2" d="M495.02,363.52c-1.01,0-1.94-.26-2.78-.68v8.26c1.84.91,3.68,1.81,5.56,2.68,0,0,0,0,0,0v-10.93c-.84.42-1.78.68-2.78.68Z"/>
  <path class="cls-2" d="M497.8,356.57v6.27c2.04-1.03,3.46-3.12,3.46-5.56,0-3.44-2.79-6.24-6.24-6.24s-6.24,2.79-6.24,6.24c0,2.44,1.41,4.53,3.46,5.56v-6.27h5.56Z"/>
  <path class="cls-2" d="M497.8,362.84v-6.27h-5.56v6.27c.84.42,1.78.68,2.78.68s1.94-.26,2.78-.68Z"/>
  <path class="cls-2" d="M595.79,222.42h4.24c-1.03-2.04-3.12-3.46-5.56-3.46-3.44,0-6.24,2.79-6.24,6.24s2.79,6.24,6.24,6.24c2.44,0,4.53-1.41,5.56-3.46h-4.24v-5.56Z"/>
  <path class="cls-2" d="M600.03,222.42h-4.24v5.56h4.24c.42-.84.68-1.78.68-2.78s-.26-1.94-.68-2.78Z"/>
  <path class="cls-2" d="M612.1,178.73h5.35c-1.09-1.83-3.06-3.08-5.35-3.08-3.44,0-6.24,2.79-6.24,6.24s2.79,6.24,6.24,6.24c2.59,0,4.81-1.58,5.75-3.83h-5.75v-5.56Z"/>
  <path class="cls-2" d="M617.45,178.73h-5.35v5.56h5.75c.31-.74.48-1.55.48-2.41,0-1.16-.34-2.23-.89-3.16Z"/>
  <path class="cls-2" d="M577.6,89.02h4.83c-.9-2.34-3.15-4.02-5.81-4.02-3.44,0-6.24,2.79-6.24,6.24s2.79,6.24,6.24,6.24c2.21,0,4.14-1.16,5.25-2.89h-4.26v-5.57Z"/>
  <path class="cls-2" d="M582.43,89.02h-4.83v5.57h4.26c.62-.97.99-2.11.99-3.34,0-.79-.16-1.53-.43-2.22Z"/>
  <path class="cls-2" d="M545.24,59.34c.13-.04.26-.08.39-.11l-.66-1.57c-1.16,1.11-1.88,2.67-1.88,4.4,0,3.37,2.73,6.11,6.11,6.11s6.11-2.73,6.11-6.11c0-3.07-2.27-5.59-5.22-6.02l1.39,3.31h-6.23Z"/>
  <path class="cls-2" d="M544.97,57.65l.66,1.57c-.13.03-.26.08-.39.11h6.23l-1.39-3.31c-.29-.04-.58-.09-.88-.09-1.64,0-3.13.66-4.23,1.71Z"/>
  <g>
    <path class="cls-1" d="M562.29,146.12c-.14-.04-.27-.1-.4-.14l-4.54-1.39v-25.33c0-4.26-.42-8.43-1.21-12.46-.37-1.89-.83-3.74-1.37-5.57-7.61-26.06-31.28-45.12-59.23-45.12-26.38,0-48.95,16.98-57.8,40.81-1.06,2.86-1.93,5.82-2.58,8.86-.93,4.35-1.43,8.85-1.43,13.48v25.33l-4.54,1.39c-.14.04-.27.1-.4.14-11.86,3.83-19.81,14.79-19.81,27.43v38.64c0,11.33,1.8,22.33,5.36,32.77.5,1.48,1.04,2.94,1.61,4.4.15.38.31.78.47,1.17,2.91,7.22,7.11,16.17,12.94,25.66,1.14,1.86,2.34,3.73,3.61,5.62,1.31,1.95,2.69,3.91,4.14,5.87,1.1,1.49,2.23,2.97,3.41,4.46,5.25,6.6,11.34,13.15,18.38,19.27,1.21,1.05,2.44,2.09,3.71,3.12,7.12,5.77,15.15,11.07,24.17,15.59,1.48.74,2.98,1.46,4.51,2.16.41.19.81.38,1.22.57l3.03,1.34,3.03-1.34c.51-.23,1-.47,1.5-.7,1.5-.69,2.97-1.4,4.42-2.12,9.01-4.54,17.04-9.85,24.14-15.62,1.21-.98,2.39-1.98,3.55-2.99,6.87-5.98,12.84-12.37,18-18.81,1.19-1.48,2.33-2.96,3.43-4.44,1.58-2.12,3.07-4.24,4.49-6.35,1.27-1.89,2.47-3.77,3.61-5.62,5.83-9.49,10.03-18.44,12.94-25.66.16-.39.32-.79.47-1.17.57-1.45,1.11-2.92,1.61-4.4,3.56-10.44,5.36-21.44,5.36-32.77v-38.64c0-12.64-7.95-23.61-19.81-27.43ZM449.45,134.6v-15.34c0-25.96,20.67-47.08,46.08-47.08s46.08,21.12,46.08,47.08v20.51l-4.94-1.51-41.14-12.59-41.14,12.6-4.94,1.51v-5.17ZM561.22,243.87c-7.82,19.8-26.63,55.28-65.68,73.93-39.05-18.65-57.87-54.12-65.68-73.93-1.56-3.96-2.8-8.03-3.75-12.18-.15-.68-.29-1.36-.43-2.04-1.15-5.68-1.75-11.51-1.75-17.46v-38.64c0-6.08,3.97-11.54,9.64-13.28l15.17-4.65,5.66-1.73,41.14-12.59,41.14,12.59,8.62,2.64,12.22,3.74c5.68,1.74,9.64,7.2,9.64,13.28v38.64c0,5.67-.53,11.23-1.58,16.65-.1.52-.22,1.03-.33,1.54-.98,4.61-2.3,9.12-4.03,13.49Z"/>
    <path class="cls-1" d="M524.95,215.91h-26.35l7.7-46.24c.31-1.85-2.08-2.81-3.09-1.24l-44.3,68.97c-.8,1.25.07,2.91,1.54,2.91h29.2l-7.34,46.57c-.3,1.88,2.16,2.8,3.13,1.17l41.09-69.29c.74-1.25-.14-2.85-1.57-2.85Z"/>
  </g>
  <rect class="cls-2" x="397.79" y="429.48" width="22.7" height="104.44"/>
  <path class="cls-2" d="M478.01,508.19h-1.51l-20.43-51.46h-21.19v10.6l28.76,64.33v1.51c-1.51,4.54-4.04,6.81-7.57,6.81h-13.62v19.68h18.92c7.27,0,13.17-1.89,17.71-5.68,4.54-3.79,8.22-9.46,11.05-17.03l26.49-69.63v-10.6h-21.19l-17.41,51.46Z"/>
  <polygon class="cls-2" points="610.46 510.46 608.95 510.46 577.16 427.97 554.45 427.97 554.45 440.08 593.81 533.93 625.6 533.93 664.95 440.08 664.95 427.97 642.25 427.97 610.46 510.46"/>
  <path class="cls-2" d="M724.74,456.73h-49.19v17.41h39.35c3.03,0,5.17.63,6.43,1.89,1.26,1.26,1.89,3.41,1.89,6.43v4.54h-33.3c-6.06,0-11.1,2.02-15.14,6.05-4.04,4.04-6.05,9.08-6.05,15.14v6.06c0,6.05,2.02,11.1,6.05,15.14,4.03,4.04,9.08,6.06,15.14,6.06h17.41c5.45,0,9.94-1.76,13.47-5.3,1.41-1.31,2.73-3.08,3.93-5.3h.76l3.78,9.08h16.65v-56.01c0-6.05-2.02-11.1-6.06-15.14-4.04-4.03-9.08-6.05-15.14-6.05ZM723.23,505.92c0,8.07-4.04,12.11-12.11,12.11h-12.11c-5.05,0-7.57-2.52-7.57-7.57v-.76c0-5.05,2.52-7.57,7.57-7.57h24.22v3.79Z"/>
  <path class="cls-2" d="M821.62,503.65c0,8.07-4.04,12.11-12.11,12.11h-12.87c-3.03,0-5.17-.63-6.43-1.89-1.26-1.26-1.89-3.41-1.89-6.43v-50.71h-22.7v57.52c0,6.05,2.02,11.1,6.05,15.14,4.03,4.04,9.08,6.06,15.14,6.06h18.92c5.45,0,9.94-1.76,13.47-5.3,1.41-1.31,2.73-3.08,3.94-5.3h.76l3.78,9.08h16.65v-77.2h-22.71v46.92Z"/>
  <rect class="cls-2" x="864.76" y="429.48" width="22.7" height="104.44"/>
  <path class="cls-2" d="M939.31,512.36c-1.26-1.26-1.89-3.41-1.89-6.43v-31.03h17.41l6.81-6.81v-11.35h-24.22v-21.19h-13.62l-7.57,21.19h-14.38v18.16h12.87v37.84c0,6.05,2.02,11.1,6.05,15.14,4.03,4.04,9.08,6.06,15.14,6.06h28v-19.68h-18.16c-3.03,0-5.17-.63-6.43-1.89Z"/>
  <polygon class="cls-1" points="478.17 276.64 478.18 276.63 478.19 276.64 478.19 276.62 478.17 276.62 478.17 276.64"/>
  <path class="cls-1" d="M623.45,50.38l-125.65-37.84-125.65,37.84c-21.6,6.51-36.11,26.04-36.11,48.6v72.6c0,23.9,4.41,47,13.1,68.66,16.72,41.67,57.72,117.23,144.4,155.01l4.26,1.86,4.26-1.86c86.69-37.79,127.68-113.34,144.4-155.02,8.69-21.66,13.1-44.76,13.1-68.66v-72.6c0-22.56-14.51-42.09-36.11-48.6ZM626.66,232.28c-1.57,3.92-3.39,8.18-5.45,12.68-.83,1.82-1.7,3.67-2.61,5.57-3.87,8.03-8.5,16.71-13.99,25.72-1.12,1.84-2.29,3.7-3.49,5.57-11.03,17.18-25.18,35.21-43.16,51.75-1.76,1.62-3.55,3.22-5.39,4.8-5.46,4.73-11.25,9.31-17.39,13.69-2.66,1.9-5.38,3.75-8.17,5.56-9.04,5.88-18.75,11.33-29.22,16.16,0,0,0,0,0,0-1.89-.87-3.73-1.77-5.56-2.68-8.7-4.29-16.86-9.01-24.52-14.05-2.49-1.63-4.92-3.3-7.3-5-6.99-4.99-13.54-10.24-19.65-15.68-1.39-1.24-2.78-2.48-4.13-3.74-5.76-5.36-11.11-10.88-16.1-16.46-2.63-2.94-5.15-5.9-7.58-8.86-6.96-8.52-13.09-17.11-18.47-25.5-1.2-1.87-2.36-3.72-3.49-5.57-5.49-9-10.12-17.68-13.99-25.72-.91-1.89-1.78-3.75-2.61-5.57-2.05-4.5-3.87-8.76-5.45-12.68-.57-1.43-1.12-2.86-1.65-4.3-.68-1.84-1.32-3.7-1.93-5.56-3.96-12.12-6.46-24.71-7.47-37.63-.14-1.85-.27-3.7-.35-5.56-.11-2.54-.17-5.09-.17-7.65v-72.6c0-11.45,6.45-21.55,16.47-26.42,1.42-.69,2.91-1.27,4.46-1.74l12.7-3.82,55.49-16.71,6.63-2,41.84-12.6,2.85-.86,2.85.86,40.19,12.1,6.63,2,57.14,17.21,12.69,3.82c1.55.47,3.04,1.05,4.46,1.74,10.01,4.87,16.47,14.97,16.47,26.42v72.6c0,2.4-.06,4.78-.16,7.15-.08,1.86-.19,3.72-.33,5.56-.98,13.09-3.5,25.85-7.51,38.13-.61,1.87-1.25,3.72-1.93,5.56-.53,1.44-1.07,2.88-1.65,4.3Z"/>
  <path class="cls-1" d="M107.16,482.91c-2.72-1.71-5.5-2.87-8.32-3.48v-1.51c2.62-.6,4.89-1.71,6.81-3.33,4.54-3.73,6.81-9.18,6.81-16.35v-5.3c0-7.57-2.27-13.62-6.81-18.16-4.54-4.54-10.6-6.81-18.16-6.81H14.07v105.96h76.44c7.57,0,13.62-2.27,18.16-6.81,4.54-4.54,6.81-10.6,6.81-18.16v-8.32c0-7.87-2.78-13.77-8.33-17.71ZM38.29,447.65h40.11c6.56,0,9.84,3.28,9.84,9.84v3.03c0,6.56-3.28,9.84-9.84,9.84h-40.11v-22.7ZM91.27,504.41c0,6.56-3.28,9.84-9.84,9.84h-43.14v-24.98h43.14c6.56,0,9.84,3.28,9.84,9.84v5.3Z"/>
  <path class="cls-1" d="M185.87,456.73h-49.19v17.41h39.35c3.03,0,5.17.63,6.43,1.89,1.26,1.26,1.89,3.41,1.89,6.43v4.54h-33.3c-6.06,0-11.1,2.02-15.14,6.05-4.04,4.04-6.05,9.08-6.05,15.14v6.06c0,6.05,2.02,11.1,6.05,15.14,4.03,4.04,9.08,6.06,15.14,6.06h17.41c5.45,0,9.94-1.76,13.47-5.3,1.41-1.31,2.73-3.08,3.94-5.3h.76l3.78,9.08h16.65v-56.01c0-6.05-2.02-11.1-6.06-15.14-4.04-4.03-9.08-6.05-15.14-6.05ZM184.36,505.92c0,8.07-4.04,12.11-12.11,12.11h-12.11c-5.05,0-7.57-2.52-7.57-7.57v-.76c0-5.05,2.52-7.57,7.57-7.57h24.22v3.79Z"/>
  <path class="cls-1" d="M251.87,460.51c-1.51,1.51-2.82,3.28-3.94,5.3h-.76l-3.79-9.08h-16.65v77.2h22.7v-45.41c0-8.07,4.03-12.11,12.11-12.11h22.7v-21.19h-18.92c-5.05,0-9.54,1.77-13.47,5.3Z"/>
  <path class="cls-1" d="M301.67,462.78c-4.04,4.04-6.05,9.08-6.05,15.14v34.82c0,6.05,2.02,11.1,6.05,15.14,4.03,4.04,9.08,6.06,15.14,6.06h19.68c5.15,0,9.64-1.51,13.47-4.54,1.41-1.21,2.72-2.72,3.93-4.54h.76v34.81h22.71v-102.93h-60.55c-6.05,0-11.1,2.02-15.14,6.05ZM318.32,484.73c0-3.03.63-5.17,1.89-6.43,1.26-1.26,3.41-1.89,6.43-1.89h28v25.73c0,8.07-4.04,12.11-12.11,12.11h-15.89c-3.03,0-5.17-.63-6.43-1.89-1.26-1.26-1.89-3.41-1.89-6.43v-21.19Z"/>
</svg>